<svg xmlns="http://www.w3.org/2000/svg" version="1.1" xmlns:xlink="http://www.w3.org/1999/xlink" xmlns:svgjs="http://svgjs.dev/svgjs" width="1000" height="1000" viewBox="0 0 1000 1000"><rect width="1000" height="1000" fill="#ffffff"></rect><g transform="matrix(0.7,0,0,0.7,150,218.95000000000005)"><svg viewBox="0 0 448 360" data-background-color="#ffffff" preserveAspectRatio="xMidYMid meet" height="803" width="1000" xmlns="http://www.w3.org/2000/svg" xmlns:xlink="http://www.w3.org/1999/xlink"><defs></defs><g id="tight-bounds" transform="matrix(1,0,0,1,0,0)"><svg viewBox="0 0 448 360" height="360" width="448"><g><svg></svg></g><g><svg viewBox="0 0 448 360" height="360" width="448"><g><path d="M193.855 44.683c1.378 0 2.494 1.116 2.495 2.494 0 1.378-1.116 2.494-2.495 2.495h-23.846l-17.167 17.167c-0.973 0.973-2.551 0.973-3.53 0-0.973-0.973-0.973-2.551 0-3.529l13.644-13.645h-40.378c-11.518 0-19.151 2.688-23.815 8.113-4.739 5.519-6.66 14.056-6.66 25.63 0 0.069 0 0.137-0.006 0.206l0.212 36.692 14.692-14.692c0.973-0.973 2.551-0.973 3.53 0 0.973 0.973 0.973 2.551 0 3.53l-18.178 18.178c0.206 35.832 0.193 71.358-0.013 107.19 25.486 25.2 50.617 50.312 75.811 75.791h25.38c1.378 0 2.494 1.116 2.495 2.495 0 1.378-1.116 2.494-2.495 2.494h-20.448l25.942 26.241 0.006-0.006c8.188 8.188 15.577 12.859 22.824 13.413 7.146 0.543 14.442-2.956 22.586-11.093l28.555-28.555h-20.722c-1.378 0-2.494-1.116-2.495-2.494 0-1.378 1.116-2.494 2.495-2.495h25.711l16.625-16.625c0.973-0.973 2.551-0.973 3.529 0 0.973 0.973 0.973 2.551 0 3.53l-13.101 13.102h40.377c11.518 0 19.151-2.688 23.815-8.113 4.739-5.519 6.66-14.056 6.66-25.63h0.013l-0.212-36.898-16.014 16.014c-0.973 0.973-2.551 0.973-3.53 0-0.973-0.973-0.973-2.551 0-3.53l19.5-19.5c-0.206-35.832-0.193-71.358 0.013-107.19-25.486-25.2-50.617-50.312-75.811-75.791h-26.147c-1.378 0-2.494-1.116-2.495-2.495 0-1.378 1.116-2.494 2.495-2.494h21.215l-25.824-26.123c-0.044-0.037-0.081-0.075-0.124-0.112-8.188-8.188-15.577-12.859-22.824-13.413-7.146-0.543-14.442 2.956-22.586 11.093l-28.555 28.555h18.858zM122.578 44.683h45.367l32.078-32.078c9.248-9.248 17.81-13.195 26.484-12.534 8.568 0.649 16.956 5.824 25.985 14.854 0.05 0.05 0.094 0.094 0.137 0.143l29.278 29.615h43.508c13.071 0 21.919 3.268 27.594 9.871 5.6 6.517 7.864 16.101 7.864 28.867 0 0.081-0.006 0.156-0.012 0.23l-0.225 39.742 28.43 28.112 0.006-0.006c9.03 9.03 14.206 17.411 14.854 25.985 0.661 8.674-3.293 17.236-12.534 26.484l-30.768 30.768 0.237 41.843h0.012c0 12.765-2.27 22.35-7.864 28.867-5.675 6.604-14.524 9.872-27.594 9.871h-45.366l-32.078 32.078c-9.248 9.248-17.81 13.195-26.484 12.534-8.568-0.649-16.956-5.824-25.985-14.854l0.006-0.006-29.421-29.758h-43.509c-13.071 0-21.919-3.268-27.594-9.872-5.6-6.517-7.864-16.101-7.863-28.866h0.012l0.231-39.972-28.293-27.969c-0.05-0.044-0.1-0.087-0.143-0.137-9.03-9.03-14.206-17.411-14.854-25.985-0.661-8.674 3.293-17.236 12.534-26.484l30.768-30.768-0.237-41.607c-0.006-0.075-0.012-0.156-0.012-0.23 0-12.765 2.27-22.35 7.864-28.867 5.675-6.604 14.524-9.872 27.594-9.871zM87.682 179.997l-0.274-47.724-27.276 27.276c-8.138 8.138-11.636 15.44-11.094 22.587 0.549 7.246 5.226 14.642 13.413 22.823 0.037 0.037 0.081 0.081 0.113 0.125l24.837 24.551 0.281-49.644zM92.303 241.483l-0.2 35.09h0.013c0 11.58 1.921 20.117 6.66 25.63 4.664 5.432 12.297 8.113 23.815 8.113h38.576l-33.55-33.936-35.308-34.903zM325.415 49.672h-38.575l33.549 33.936 35.308 34.902 0.2-34.884c-0.006-0.069-0.006-0.137-0.007-0.205 0-11.58-1.921-20.117-6.66-25.63-4.664-5.432-12.297-8.113-23.815-8.113zM360.599 130.352l-0.281 49.645 0.274 47.724 27.276-27.276c8.138-8.138 11.636-15.44 11.094-22.587-0.549-7.252-5.226-14.642-13.413-22.824l0.006-0.006-24.956-24.669z" fill="#202046" data-fill-palette-color="tertiary"></path></g><g transform="matrix(1,0,0,1,134.08999999999997,90.08999999999999)"><svg viewBox="0 0 179.82000000000002 179.82000000000002" height="179.82000000000002" width="179.82000000000002"><g><svg viewBox="0 0 179.82000000000002 179.82000000000002" height="179.82000000000002" width="179.82000000000002"><g><svg viewBox="0 0 179.82000000000002 179.82000000000002" height="179.82000000000002" width="179.82000000000002"><g><svg viewBox="0 0 179.82000000000002 179.82000000000002" height="179.82000000000002" width="179.82000000000002"><g><svg viewBox="0 0 179.82000000000002 179.82000000000002" height="179.82000000000002" width="179.82000000000002"><g transform="matrix(1,0,0,1,47.90710265548505,57.69487513708744)"><svg viewBox="0 0 84.00579468902993 64.43024972582513" height="64.43024972582513" width="84.00579468902993"><g><svg xmlns="http://www.w3.org/2000/svg" xmlns:xlink="http://www.w3.org/1999/xlink" version="1.1" x="0" y="0" viewBox="25.318967819213867 31.071001052856445 49.36152648925781 37.85900115966797" enable-background="new 0 0 100 100" xml:space="preserve" height="64.43024972582513" width="84.00579468902993" class="icon-o-0" data-fill-palette-color="accent" id="o-0"><path d="M73.789 58.976c-1.182-2.047-3.386-3.318-5.751-3.318-0.987 0-1.958 0.235-2.849 0.661l-8.713-10.916c0.868-0.984 1.512-2.159 1.861-3.466 0.597-2.228 0.29-4.554-0.863-6.55-1.537-2.662-4.403-4.316-7.48-4.316-1.507 0-2.996 0.4-4.307 1.158-1.998 1.152-3.427 3.014-4.023 5.24-0.598 2.228-0.292 4.553 0.861 6.549 0.288 0.5 0.637 0.951 1.012 1.375l-8.727 10.926c-0.891-0.425-1.861-0.66-2.848-0.66-2.365 0-4.569 1.271-5.752 3.318-0.885 1.535-1.121 3.323-0.662 5.035 0.458 1.712 1.557 3.143 3.09 4.027 1.01 0.583 2.155 0.891 3.314 0.891 2.365 0 4.568-1.271 5.752-3.318 0.885-1.534 1.12-3.322 0.662-5.035-0.238-0.888-0.65-1.697-1.204-2.396l8.714-10.911c0.814 0.443 1.699 0.751 2.623 0.916v7.655c-0.634 0.148-1.249 0.379-1.817 0.707-3.169 1.829-4.258 5.896-2.429 9.064 1.182 2.047 3.386 3.317 5.751 3.317 1.159 0 2.305-0.308 3.313-0.89 1.534-0.886 2.632-2.316 3.091-4.028s0.224-3.5-0.663-5.035c-0.926-1.603-2.48-2.72-4.246-3.133v-7.655c0.917-0.163 1.805-0.469 2.629-0.918l8.712 10.914c-1.631 2.07-1.94 5.009-0.544 7.428 1.182 2.047 3.386 3.317 5.751 3.317 1.159 0 2.305-0.308 3.313-0.89 1.534-0.886 2.632-2.316 3.091-4.028S74.676 60.511 73.789 58.976z" fill="#000000" data-fill-palette-color="accent"></path></svg></g></svg></g><path d="M1.712 91.092c0-2.125 1.723-3.848 3.848-3.847 2.125 0 3.848 1.723 3.847 3.847 0 2.125-1.723 3.848-3.847 3.848-2.125 0-3.848-1.723-3.848-3.848zM170.413 91.092c0-2.125 1.723-3.848 3.847-3.847 2.125 0 3.848 1.723 3.848 3.847 0 2.125-1.723 3.848-3.848 3.848-2.125 0-3.848-1.723-3.847-3.848z" fill="#000000" data-fill-palette-color="primary"></path><path d="M13.607 65.556v0c-0.261 0.829-0.695 1.479-1.303 1.951-0.607 0.472-1.333 0.753-2.178 0.844-0.851 0.089-1.767-0.021-2.748-0.329v0c-1.047-0.33-1.874-0.783-2.479-1.36-0.603-0.583-0.995-1.238-1.174-1.965-0.175-0.718-0.142-1.458 0.098-2.22v0c0.317-1.008 0.825-1.74 1.522-2.198 0.696-0.451 1.484-0.666 2.366-0.643v0l-0.149 1.341c-0.644 0.009-1.209 0.173-1.696 0.493-0.48 0.322-0.81 0.769-0.989 1.339v0c-0.156 0.497-0.161 0.998-0.014 1.503 0.154 0.507 0.472 0.976 0.956 1.405 0.475 0.434 1.127 0.781 1.956 1.042v0c0.756 0.238 1.458 0.346 2.106 0.324 0.646-0.015 1.203-0.175 1.67-0.48 0.467-0.305 0.798-0.765 0.992-1.382v0c0.236-0.749 0.22-1.406-0.047-1.97-0.26-0.563-0.715-0.946-1.364-1.151v0l0.404-1.283c0.676 0.213 1.207 0.551 1.593 1.015 0.386 0.464 0.62 1.015 0.703 1.653 0.081 0.645 0.006 1.335-0.225 2.071zM6.306 56.101l0.485-1.131 8.106 3.473 1.736-4.053 0.987 0.422-2.221 5.184zM15.109 52.126l-5.534-3.046 0.588-1.068 5.534 3.045c0.816 0.449 1.517 0.565 2.104 0.349 0.584-0.21 1.058-0.647 1.424-1.31v0c0.362-0.658 0.475-1.289 0.34-1.895-0.135-0.606-0.61-1.133-1.425-1.582v0l-5.535-3.046 0.594-1.077 5.534 3.045c0.724 0.399 1.26 0.868 1.605 1.407 0.336 0.542 0.494 1.128 0.472 1.759-0.025 0.621-0.221 1.266-0.59 1.936v0c-0.369 0.67-0.81 1.184-1.325 1.544-0.521 0.356-1.1 0.537-1.738 0.542-0.641-0.004-1.323-0.205-2.048-0.603zM25.532 42.207l-2.158 3.006-8.036-5.769 2.157-3.006c0.421-0.587 0.868-1.007 1.34-1.258 0.472-0.252 0.937-0.358 1.397-0.319 0.454 0.035 0.867 0.186 1.239 0.453v0c0.463 0.332 0.773 0.747 0.929 1.245 0.156 0.497 0.114 1.044-0.126 1.641v0c0.286-0.291 0.608-0.496 0.967-0.614 0.369-0.12 0.733-0.158 1.095-0.113 0.367 0.049 0.697 0.179 0.99 0.39v0c0.277 0.199 0.51 0.439 0.701 0.722 0.195 0.277 0.32 0.597 0.375 0.961 0.055 0.364 0.019 0.766-0.108 1.206-0.131 0.445-0.385 0.93-0.762 1.455zM20.509 41.642l2.71 1.945 1.434-1.998c0.438-0.61 0.625-1.138 0.561-1.586-0.069-0.452-0.304-0.821-0.705-1.109v0c-0.401-0.288-0.829-0.377-1.283-0.268-0.453 0.119-0.881 0.458-1.282 1.018v0zM18.332 37.077l-1.422 1.982 2.735 1.963 1.411-1.964c0.361-0.502 0.525-0.988 0.492-1.456-0.034-0.478-0.273-0.876-0.719-1.196v0c-0.418-0.3-0.849-0.391-1.292-0.273-0.438 0.122-0.84 0.437-1.205 0.944zM5.909 118.849v0c-0.2-0.644-0.267-1.27-0.202-1.88 0.065-0.61 0.273-1.147 0.623-1.612 0.35-0.465 0.859-0.809 1.525-1.03v0l0.362 1.164c-0.445 0.138-0.779 0.362-1.003 0.672-0.217 0.308-0.342 0.667-0.375 1.077-0.026 0.408 0.027 0.825 0.159 1.249v0c0.144 0.465 0.346 0.846 0.606 1.144 0.251 0.293 0.525 0.496 0.821 0.607 0.303 0.11 0.601 0.119 0.893 0.028v0c0.405-0.126 0.699-0.352 0.881-0.677 0.174-0.331 0.261-0.765 0.261-1.304v0l0.069-1.887c0.045-0.887 0.187-1.59 0.426-2.108 0.237-0.525 0.688-0.89 1.351-1.096v0c0.75-0.233 1.447-0.133 2.091 0.3 0.648 0.424 1.137 1.168 1.467 2.229v0c0.303 0.976 0.314 1.809 0.034 2.5-0.28 0.691-0.789 1.198-1.525 1.522v0l-0.368-1.185c0.422-0.211 0.707-0.525 0.854-0.942 0.138-0.421 0.112-0.941-0.08-1.558v0c-0.198-0.637-0.491-1.088-0.878-1.353-0.395-0.263-0.804-0.329-1.229-0.197v0c-0.352 0.109-0.599 0.31-0.742 0.601-0.138 0.283-0.212 0.688-0.222 1.216v0l-0.079 2.207c-0.013 0.754-0.163 1.397-0.449 1.929-0.294 0.528-0.77 0.894-1.427 1.098v0c-0.511 0.159-1.015 0.166-1.511 0.022-0.503-0.142-0.959-0.441-1.369-0.896-0.404-0.457-0.725-1.07-0.964-1.84zM8.95 126.374l9.084-4.344 0.778 1.627-4.78 6.121-0.053-0.113 7.765 0.123 0.755 1.58-9.084 4.344-0.549-1.148 7.919-3.786 0.099 0.207-8.363-0.091-0.36-0.753 5.141-6.525 0.059 0.122-7.872 3.764zM16.216 139.934l-0.751-1.078 10.242-2.912 0.875 1.257-6.334 8.525-0.751-1.078 1.634-2.178-2.287-3.285zM24.881 137.421l-5.049 1.469 1.924 2.763zM23.383 149.399l-0.828-0.937 7.545-6.669 2.326 2.632c0.764 0.864 1.136 1.7 1.116 2.506-0.015 0.802-0.358 1.499-1.03 2.093v0c-0.661 0.584-1.393 0.837-2.196 0.758-0.803-0.079-1.586-0.551-2.35-1.415v0l-1.498-1.695zM27.366 153.906l-1.07-1.211 1.517-5.194 0.904 1.023zM30.124 143.442l-2.992 2.643 1.436 1.625c0.502 0.568 1.022 0.873 1.561 0.916 0.538 0.053 1.029-0.116 1.471-0.507v0c0.458-0.405 0.696-0.87 0.714-1.396 0.017-0.516-0.214-1.045-0.692-1.586v0zM37.913 151.231l-2.703-2.341 0.703-0.811 5.933 5.139-0.703 0.812-2.711-2.348 0.404-0.037-6.081 7.02-0.946-0.819 6.082-7.02zM42.858 166.287l-5.065-3.581 5.814-8.222 5.064 3.581-0.62 0.876-4.043-2.858-1.95 2.757 3.813 2.696-0.625 0.886-3.813-2.696-1.986 2.808 4.042 2.859zM47.805 169.021l-1.104-0.588 4.736-8.887 3.1 1.652c1.018 0.542 1.659 1.195 1.922 1.957 0.266 0.756 0.189 1.53-0.233 2.321v0c-0.415 0.779-1.012 1.272-1.792 1.479-0.779 0.207-1.678 0.039-2.696-0.504v0l-1.996-1.064zM53.113 171.849l-1.425-0.759-0.397-5.397 1.205 0.642zM52.036 161.082l-1.878 3.523 1.914 1.02c0.668 0.356 1.263 0.46 1.782 0.312 0.523-0.139 0.923-0.469 1.201-0.99v0c0.288-0.54 0.348-1.059 0.181-1.558-0.165-0.489-0.566-0.904-1.204-1.243v0z" fill="#000000" data-fill-palette-color="primary"></path><path d="M31.54 35.114l-0.918 0.91-4.543-9.425 1.066-1.057 9.326 4.685-0.918 0.91-2.383-1.205-2.799 2.774zM27.639 27.151l2.28 4.639 2.346-2.326zM40.533 27.249v0c-0.679 0.542-1.402 0.84-2.169 0.892-0.767 0.053-1.527-0.119-2.279-0.514-0.756-0.401-1.455-1.003-2.097-1.806v0c-0.685-0.858-1.119-1.695-1.299-2.511-0.175-0.821-0.135-1.582 0.121-2.286 0.255-0.693 0.695-1.289 1.32-1.788v0c0.825-0.659 1.655-0.984 2.49-0.976 0.829 0.013 1.603 0.276 2.322 0.786v0l-0.871 1.03c-0.539-0.352-1.1-0.531-1.683-0.536-0.578 0-1.101 0.186-1.568 0.559v0c-0.407 0.325-0.691 0.739-0.851 1.24-0.155 0.507-0.152 1.073 0.011 1.699 0.153 0.625 0.5 1.277 1.042 1.956v0c0.495 0.619 1.017 1.1 1.567 1.443 0.545 0.348 1.096 0.525 1.654 0.534 0.558 0.008 1.089-0.19 1.594-0.594v0c0.613-0.49 0.967-1.044 1.061-1.661 0.098-0.612-0.066-1.184-0.491-1.716v0l1.05-0.84c0.442 0.554 0.694 1.131 0.756 1.731 0.062 0.6-0.051 1.188-0.338 1.765-0.292 0.58-0.74 1.111-1.342 1.593zM42.076 15.129l-2.963 1.867-0.561-0.891 6.518-4.105 0.561 0.89-2.982 1.878 0.089-0.388 4.861 7.717-1.041 0.656-4.861-7.717zM52.712 19.064l-1.076 0.597-4.804-8.647 1.075-0.598zM57.422 15.523l-0.143 0.062-0.755-9.047 1.194-0.522 0.733 10.478-1.165 0.511-7.178-7.655 1.203-0.527zM64.381 14.115l-1.156 0.421-3.389-9.293 1.155-0.422zM66.786 4.287l-3.385 0.896-0.27-1.017 7.446-1.973 0.27 1.018-3.406 0.902 0.2-0.344 2.335 8.817-1.189 0.315-2.335-8.817zM75.761 11.218l-1.204 0.249-2.002-9.688 1.205-0.249zM84.644 10.09l-6.052 0.746-1.209-9.818 6.052-0.746 0.129 1.045-4.832 0.595 0.407 3.3 4.552-0.56 0.128 1.045-4.552 0.56 0.414 3.363 4.832-0.595zM90.176 10.257v0c-0.667 0.007-1.276-0.105-1.828-0.336-0.551-0.238-1-0.587-1.345-1.05-0.338-0.462-0.518-1.037-0.539-1.725v0l1.199-0.012c0.005 0.459 0.123 0.836 0.355 1.133 0.225 0.297 0.526 0.512 0.903 0.647 0.377 0.142 0.784 0.211 1.222 0.207v0c0.479-0.005 0.896-0.086 1.249-0.242 0.346-0.156 0.615-0.357 0.807-0.603 0.185-0.252 0.276-0.528 0.273-0.826v0c-0.004-0.424-0.136-0.763-0.397-1.018-0.26-0.261-0.641-0.469-1.142-0.624v0l-1.758-0.597c-0.823-0.29-1.448-0.621-1.876-0.992-0.421-0.371-0.635-0.9-0.642-1.588v0c-0.008-0.764 0.281-1.393 0.867-1.886 0.586-0.486 1.424-0.734 2.515-0.745v0c1.008-0.01 1.795 0.214 2.363 0.675 0.575 0.46 0.908 1.078 0.999 1.855v0l-1.209 0.013c-0.088-0.451-0.307-0.803-0.657-1.057-0.35-0.254-0.845-0.377-1.484-0.37v0c-0.653 0.007-1.159 0.158-1.518 0.453-0.358 0.289-0.535 0.655-0.53 1.1v0c0.004 0.361 0.118 0.649 0.342 0.862 0.231 0.206 0.595 0.39 1.09 0.551v0l2.05 0.688c0.711 0.236 1.278 0.564 1.699 0.984 0.414 0.42 0.625 0.97 0.632 1.651v0c0.005 0.521-0.132 0.995-0.413 1.422-0.274 0.434-0.684 0.778-1.23 1.034-0.539 0.256-1.205 0.388-1.997 0.396zM66.407 167.148l-3.417-1.051 0.315-1.026 7.503 2.308-0.316 1.026-3.427-1.054 0.354-0.196-2.73 8.877-1.196-0.368 2.731-8.877zM70.971 177.691l1.925-9.884 1.228 0.239-0.849 4.359 4.901 0.954 0.849-4.358 1.207 0.235-1.925 9.884-1.207-0.236 0.871-4.471-4.901-0.955-0.871 4.472zM83.311 179.488l-1.312-0.062 3.93-9.895 1.531 0.072 2.9 10.217-1.312-0.062-0.732-2.622-3.998-0.188zM86.597 171.086l-1.911 4.898 3.364 0.158zM93.934 179.653l-0.717-10.044 1.487-0.106 5.695 7.901-0.114 0.008-0.591-8.265 1.248-0.09 0.718 10.044-1.394 0.1-5.892-8.169 0.197-0.015 0.611 8.547z" fill="#000000" data-fill-palette-color="secondary"></path><path d="M99.583 10.656l1.611-9.76 1.738 0.287 2.249 7.302-0.123-0.02 4.467-6.193 1.697 0.28-1.612 9.76-1.234-0.204 1.404-8.505 0.227 0.037-4.782 6.691-0.812-0.134-2.365-7.818 0.144 0.024-1.396 8.454zM112.202 13.206l-1.231-0.395 6.269-8.377 1.429 0.459 0.143 10.435-1.231-0.395-0.03-2.67-3.751-1.204zM117.469 6.073l-3.065 4.161 3.146 1.01zM120.262 15.989l3.983-9.055 1.345 0.592 1.321 9.475-0.095-0.042 3.278-7.452 1.116 0.491-3.983 9.055-1.25-0.55-1.374-9.794 0.172 0.076-3.387 7.7zM129.612 20.531l-1.105-0.671 8.048-6.687 1.283 0.779-2.292 10.181-1.105-0.67 0.593-2.604-3.368-2.045zM136.396 14.82l-3.951 3.333 2.825 1.715zM139.459 27.387v0c-0.629-0.481-1.076-1.081-1.341-1.799-0.264-0.718-0.321-1.492-0.169-2.32 0.152-0.828 0.54-1.651 1.165-2.468v0c0.519-0.679 1.076-1.202 1.672-1.569 0.59-0.371 1.189-0.6 1.797-0.687 0.612-0.092 1.21-0.055 1.792 0.111 0.577 0.161 1.114 0.431 1.61 0.811v0c0.613 0.468 1.054 1.007 1.324 1.615 0.274 0.603 0.368 1.304 0.281 2.104v0l-1.18-0.378c-0.016-0.563-0.12-1.05-0.314-1.46-0.188-0.406-0.462-0.746-0.821-1.02v0c-0.475-0.363-1.012-0.564-1.612-0.603-0.59-0.04-1.195 0.093-1.814 0.398-0.609 0.304-1.173 0.796-1.691 1.476v0c-0.46 0.602-0.771 1.208-0.932 1.82-0.156 0.616-0.155 1.193 0.001 1.732 0.156 0.539 0.483 0.999 0.98 1.379v0c0.381 0.291 0.789 0.467 1.223 0.528 0.439 0.055 0.881-0.026 1.328-0.244 0.441-0.223 0.867-0.602 1.276-1.138v0l0.306 0.235c-0.506 0.663-1.03 1.181-1.569 1.555-0.536 0.369-1.081 0.556-1.636 0.561-0.555 0.005-1.114-0.208-1.676-0.639zM142.587 29.542l-0.778-0.595 1.244-1.988 1.006-1.317-1.935-1.571 0.507-0.662 2.931 2.241zM148.773 35.433l-4.417-4.204 6.82-7.165 4.417 4.204-0.726 0.763-3.526-3.357-2.292 2.409 3.322 3.162-0.726 0.763-3.322-3.162-2.336 2.453 3.526 3.357zM150.201 37.233l7.686-6.227 1.109 1.369-3.168 6.953-0.078-0.097 7.452-1.664 1.083 1.336-7.687 6.227-0.787-0.972 6.698-5.426 0.145 0.178-8.018 1.827-0.519-0.64 3.424-7.415 0.092 0.113-6.658 5.394zM161.092 52.652l-3.171-5.209 8.45-5.143 3.17 5.209-0.899 0.547-2.531-4.158-2.84 1.729 2.384 3.917-0.899 0.548-2.385-3.918-2.893 1.762 2.531 4.158zM162.04 54.785l8.979-4.15 0.617 1.334-5.282 7.976-0.044-0.094 7.39-3.416 0.512 1.107-8.98 4.15-0.572-1.239 5.453-8.251 0.079 0.17-7.636 3.53zM175.051 63.546l-1.05-3.341 1.004-0.316 2.311 7.349-1.005 0.316-1.056-3.362 0.352 0.185-8.701 2.735-0.368-1.173 8.701-2.736zM112.385 172.498l-5.082-4.721 1.444-0.411 4.115 3.913-0.301 0.085 1.48-5.503 1.434-0.408-1.877 6.7 1.132 3.981-1.214 0.345zM127.029 171.689l-5.758 2.305-3.743-9.348 5.758-2.305 0.399 0.996-4.596 1.841 1.255 3.135 4.335-1.736 0.403 1.007-4.335 1.736 1.279 3.193 4.596-1.84zM133.838 168.214v0c-0.589 0.328-1.188 0.523-1.799 0.585-0.61 0.061-1.179-0.031-1.706-0.279-0.527-0.247-0.968-0.674-1.322-1.28v0l1.066-0.594c0.227 0.407 0.514 0.688 0.863 0.844 0.346 0.149 0.723 0.198 1.131 0.145 0.405-0.058 0.802-0.196 1.19-0.412v0c0.425-0.237 0.756-0.513 0.995-0.828 0.235-0.306 0.377-0.616 0.425-0.929 0.045-0.319-0.007-0.613-0.156-0.88v0c-0.206-0.37-0.488-0.611-0.844-0.723-0.359-0.102-0.802-0.098-1.329 0.013v0l-1.862 0.321c-0.877 0.139-1.594 0.144-2.15 0.016-0.562-0.124-1.013-0.49-1.351-1.097v0c-0.382-0.686-0.427-1.389-0.136-2.108 0.282-0.722 0.909-1.353 1.88-1.894v0c0.892-0.497 1.706-0.679 2.44-0.547 0.734 0.132 1.335 0.525 1.802 1.179v0l-1.084 0.604c-0.293-0.37-0.659-0.583-1.097-0.642-0.441-0.049-0.944 0.084-1.508 0.399v0c-0.583 0.325-0.964 0.704-1.144 1.138-0.176 0.44-0.156 0.855 0.06 1.243v0c0.179 0.322 0.426 0.522 0.741 0.602 0.305 0.077 0.717 0.066 1.235-0.032v0l2.176-0.377c0.74-0.142 1.4-0.128 1.981 0.042 0.577 0.18 1.033 0.57 1.368 1.171v0c0.26 0.467 0.371 0.959 0.332 1.474-0.036 0.521-0.234 1.029-0.595 1.524-0.364 0.489-0.898 0.93-1.602 1.322zM136.835 155.297l-2.871 2.13-0.64-0.863 6.305-4.675 0.639 0.862-2.88 2.136 0.052-0.402 5.533 7.46-1.005 0.745-5.532-7.46zM152.605 153.737l-4.594 4.166-6.765-7.458 4.595-4.167 0.721 0.795-3.668 3.327 2.269 2.501 3.459-3.137 0.728 0.803-3.459 3.137 2.311 2.548 3.668-3.326zM156.348 149.498l-0.814 0.95-7.65-6.547 2.284-2.669c0.75-0.876 1.526-1.361 2.327-1.453 0.796-0.096 1.534 0.147 2.216 0.73v0c0.67 0.574 1.022 1.264 1.055 2.07 0.033 0.806-0.326 1.647-1.076 2.523v0l-1.47 1.719zM160.259 144.928l-1.051 1.228-5.354-0.782 0.888-1.037zM149.513 143.648l3.033 2.596 1.41-1.647c0.493-0.575 0.723-1.133 0.691-1.673-0.022-0.54-0.258-1.003-0.707-1.386v0c-0.465-0.398-0.958-0.569-1.481-0.514-0.513 0.055-1.005 0.356-1.475 0.906v0zM162.582 141.467l-8.454-5.471 1.609-2.485c0.551-0.852 1.201-1.478 1.949-1.88 0.758-0.404 1.563-0.574 2.416-0.51 0.862 0.061 1.722 0.37 2.58 0.925v0c0.846 0.547 1.474 1.202 1.883 1.964 0.407 0.752 0.585 1.558 0.533 2.418-0.054 0.851-0.357 1.702-0.908 2.554v0zM156.664 134.111l-0.929 1.436 6.608 4.275 0.928-1.435c0.412-0.636 0.624-1.277 0.636-1.922 0.009-0.64-0.157-1.248-0.496-1.824-0.339-0.576-0.824-1.067-1.454-1.475v0c-0.636-0.412-1.283-0.652-1.941-0.722-0.658-0.07-1.278 0.03-1.858 0.3-0.584 0.276-1.082 0.732-1.494 1.367zM168.816 130.845l-0.552 1.192-7.683-7.372 0.644-1.39 10.556 1.166-0.552 1.192-2.705-0.311-1.682 3.633zM162.273 124.633l3.816 3.617 1.415-3.055zM169.556 118.143l-6.755 1.577 0.466-1.426 5.544-1.228-0.098 0.298-3.737-4.302 0.462-1.417 4.509 5.299 3.934 1.285-0.392 1.199z" fill="#000000" data-fill-palette-color="accent"></path></svg></g></svg></g></svg></g></svg></g></svg></g></svg></g></svg><rect width="448" height="360" fill="none" stroke="none" visibility="hidden"></rect></g></svg></g></svg>